# xmcd CD database file
#
# Track frame offsets:
#	225
#	11307
#	21231
#	33517
#	46315
#	58740
#	70490
#	82866
#	95133
#	107626
#	119450
#	133436
#	147177
#	162415
#	175617
#	184977
#	202643
#	219109
#	230363
#	242021
#	255759
#	265905
#	282813
#
# Disc length: 3957 seconds
#
# Revision: 0
# Processed by: cddbd v1.5.2PL0 Copyright (c) Steve Scherf et al.
# Submitted via: jetAudio 7
#
DISCID=3d0f7217
DTITLE=Chet Atkins - Yestergroovin' and Lover's Guitar
DYEAR=1900
DGENRE=Country
TTITLE0=Steeplechase Lane
TTITLE1=Tennessee Pride
TTITLE2=Rocky Top
TTITLE3=Gotta Travel On
TTITLE4=Cherokee
TTITLE5=Country Champagne
TTITLE6=Liberty
TTITLE7=Inka Dinka Doo
TTITLE8=Bring Me Sunshine
TTITLE9=Yestergroovin'
TTITLE10=How High The Moon
TTITLE11=Theme From ''Zorba The Greek''
TTITLE12=Hawaiian Wedding Song
TTITLE13=The Look Of Love
TTITLE14=Cajita De Música (Little Music Box)
TTITLE15=Canción Del Viento (Song Of The Wind)
TTITLE16=Estudio Brillante
TTITLE17=La Madrugada (The Early Dawn)
TTITLE18=If I Should Lose You
TTITLE19=Those Were The Days
TTITLE20=The Odd Folks Of Okracoke
TTITLE21=Until It's Time For You To Go
TTITLE22=Recuerdos De La Alhambra
EXTD=©2016 Vocalion Ltd. CDLK-4586
EXTT0=
EXTT1=
EXTT2=
EXTT3=
EXTT4=
EXTT5=
EXTT6=
EXTT7=
EXTT8=
EXTT9=
EXTT10=
EXTT11=
EXTT12=
EXTT13=
EXTT14=
EXTT15=
EXTT16=
EXTT17=
EXTT18=
EXTT19=
EXTT20=
EXTT21=
EXTT22=
PLAYORDER=
